<svg width="208" height="41" viewBox="0 0 208 41" fill="none" xmlns="http://www.w3.org/2000/svg">
<path id="Vector" d="M207.647 18.7688V13.6641H201.379V5.72824L201.168 5.79395L195.281 7.61569L195.165 7.65135V13.6644H185.873V10.3146C185.873 8.75484 186.218 7.56122 186.897 6.76519C187.572 5.97871 188.537 5.57886 189.769 5.57886C190.654 5.57886 191.57 5.78974 192.493 6.20558L192.724 6.31003V0.934091L192.615 0.893657C191.755 0.580861 190.584 0.42334 189.134 0.42334C187.306 0.42334 185.645 0.825708 184.196 1.62314C182.746 2.4217 181.606 3.56169 180.807 5.01111C180.011 6.45885 179.607 8.13093 179.607 9.98132V13.6641H175.243V18.7688H179.607V40.274H185.873V18.7688H195.165V32.435C195.165 38.0634 197.79 40.9156 202.967 40.9156C203.817 40.9156 204.713 40.8148 205.627 40.6174C206.558 40.4147 207.191 40.2122 207.565 39.996L207.647 39.9466V34.7947L207.392 34.9652C207.052 35.1943 206.629 35.3816 206.132 35.5208C205.634 35.6626 205.217 35.7337 204.895 35.7337C203.682 35.7337 202.785 35.4032 202.228 34.7509C201.665 34.0928 201.379 32.9418 201.379 31.3318V18.7688H207.647ZM161.252 35.7345C158.977 35.7345 157.185 34.9719 155.921 33.4697C154.65 31.9599 154.006 29.8074 154.006 27.0725C154.006 24.2509 154.65 22.0425 155.922 20.506C157.186 18.9797 158.962 18.205 161.2 18.205C163.373 18.205 165.102 18.9449 166.341 20.4052C167.586 21.8732 168.218 24.0639 168.218 26.9184C168.218 29.8079 167.624 32.0276 166.452 33.5124C165.289 34.9859 163.539 35.7345 161.252 35.7345ZM161.53 13.0231C157.191 13.0231 153.746 14.3088 151.288 16.8446C148.833 19.3807 147.588 22.8902 147.588 27.2767C147.588 31.443 148.803 34.7942 151.2 37.2356C153.598 39.6779 156.86 40.915 160.896 40.915C165.101 40.915 168.479 39.6113 170.934 37.0405C173.39 34.4724 174.634 30.996 174.634 26.712C174.634 22.4805 173.467 19.1044 171.163 16.6792C168.859 14.2529 165.617 13.0231 161.53 13.0231ZM137.487 13.0231C134.535 13.0231 132.094 13.7865 130.229 15.2918C128.353 16.8061 127.401 18.7921 127.401 21.1954C127.401 22.4446 127.607 23.5543 128.011 24.4955C128.418 25.4398 129.047 26.2712 129.883 26.9689C130.713 27.6611 131.994 28.386 133.692 29.1237C135.119 29.7175 136.183 30.2199 136.859 30.6158C137.52 31.0038 137.989 31.3938 138.253 31.7737C138.511 32.1455 138.641 32.6543 138.641 33.2821C138.641 35.0699 137.318 35.9398 134.594 35.9398C133.583 35.9398 132.431 35.7264 131.169 35.3058C129.915 34.8915 128.732 34.2848 127.661 33.507L127.401 33.3183V39.419L127.496 39.4639C128.383 39.8778 129.501 40.2268 130.818 40.5014C132.133 40.7763 133.327 40.9162 134.365 40.9162C137.568 40.9162 140.147 40.149 142.028 38.6348C143.922 37.1101 144.882 35.0772 144.882 32.5908C144.882 30.7972 144.365 29.259 143.347 28.0185C142.335 26.7881 140.58 25.6585 138.132 24.66C136.181 23.8682 134.931 23.2109 134.416 22.7063C133.919 22.2188 133.666 21.5295 133.666 20.6565C133.666 19.8827 133.978 19.2627 134.617 18.7607C135.262 18.2561 136.159 17.9995 137.284 17.9995C138.328 17.9995 139.396 18.1663 140.458 18.4931C141.519 18.8199 142.451 19.2577 143.23 19.7931L143.486 19.97V14.183L143.387 14.1403C142.669 13.8289 141.723 13.5625 140.573 13.3463C139.428 13.1315 138.39 13.0231 137.487 13.0231ZM111.068 35.7345C108.795 35.7345 107.001 34.9719 105.738 33.4697C104.466 31.9599 103.823 29.8079 103.823 27.0725C103.823 24.2509 104.467 22.0425 105.739 20.506C107.002 18.9797 108.778 18.205 111.018 18.205C113.189 18.205 114.919 18.9449 116.158 20.4052C117.403 21.8732 118.035 24.0639 118.035 26.9184C118.035 29.8079 117.44 32.0276 116.269 33.5124C115.105 34.9859 113.356 35.7345 111.068 35.7345ZM111.347 13.0231C107.008 13.0231 103.561 14.3088 101.106 16.8446C98.6505 19.3807 97.4047 22.8902 97.4047 27.2767C97.4047 31.4447 98.6208 34.7942 101.018 37.2356C103.415 39.6779 106.677 40.915 110.713 40.915C114.918 40.915 118.296 39.6113 120.752 37.0405C123.207 34.4724 124.452 30.996 124.452 26.712C124.452 22.4805 123.284 19.1044 120.98 16.6792C118.675 14.2529 115.434 13.0231 111.347 13.0231ZM87.8942 18.2724V13.6641H81.7052V40.2734H87.8942V26.6617C87.8942 24.3472 88.4131 22.4457 89.437 21.0095C90.4479 19.5904 91.7949 18.8713 93.4396 18.8713C93.9971 18.8713 94.6229 18.9642 95.3006 19.1482C95.9713 19.331 96.4572 19.5295 96.7437 19.7384L97.0038 19.929V13.6186L96.9036 13.5751C96.3272 13.3275 95.5118 13.2025 94.4802 13.2025C92.9249 13.2025 91.5331 13.7079 90.341 14.703C89.2946 15.5777 88.5383 16.7769 87.96 18.2724H87.8942ZM70.6219 13.0231C67.7826 13.0231 65.2501 13.6388 63.0959 14.8527C60.9373 16.0693 59.2679 17.8063 58.1322 20.015C57.0014 22.2183 56.4272 24.792 56.4272 27.6622C56.4272 30.1763 56.9839 32.4836 58.0841 34.517C59.1849 36.5538 60.743 38.1473 62.7153 39.2525C64.6848 40.3563 66.9611 40.9159 69.4814 40.9159C72.4227 40.9159 74.9338 40.3212 76.9472 39.1483L77.0285 39.1011V33.3666L76.7684 33.5587C75.8564 34.2306 74.8372 34.7669 73.7406 35.1533C72.6467 35.5394 71.6495 35.7345 70.7749 35.7345C68.3465 35.7345 66.3969 34.966 64.9819 33.4509C63.5637 31.9338 62.8447 29.8035 62.8447 27.1228C62.8447 24.4253 63.5945 22.2402 65.0724 20.6279C66.5457 19.0204 68.4989 18.205 70.8771 18.205C72.9113 18.205 74.8936 18.9016 76.769 20.2775L77.0285 20.4681V14.4259L76.9447 14.3782C76.239 13.9786 75.2764 13.6487 74.0815 13.3985C72.8916 13.1489 71.7277 13.0231 70.6219 13.0231ZM52.1647 13.6644H45.9758V40.2734H52.1647V13.6644ZM49.1336 2.32876C48.1149 2.32876 47.2265 2.67946 46.4966 3.37441C45.7637 4.07132 45.3919 4.94878 45.3919 5.98432C45.3919 7.00358 45.7592 7.86503 46.4852 8.54341C47.2065 9.21983 48.0977 9.56267 49.1339 9.56267C50.1697 9.56267 51.0642 9.21983 51.7941 8.54453C52.5287 7.86503 52.9013 7.00386 52.9013 5.98432C52.9013 4.985 52.5387 4.11653 51.8244 3.40249C51.1106 2.68985 50.2049 2.32876 49.1336 2.32876ZM33.6917 11.7011V40.2734H40.0078V3.14332H31.2661L20.1547 30.7225L9.37181 3.14332H0.274109V40.2731H6.20958V11.6983H6.41337L17.7999 40.2734H22.2792L33.4879 11.7011H33.6917Z" fill="#706D6E"/>
</svg>
